inDegrees=yes
name=IK-live
DataType=double
version=3
OpenSimVersion=4.1
endheader
time	pelvis_tilt	pelvis_list	pelvis_rotation	pelvis_tx	pelvis_ty	pelvis_tz	hip_flexion_r	hip_adduction_r	hip_rotation_r	knee_angle_r	ankle_angle_r	subtalar_angle_r	mtp_angle_r	hip_flexion_l	hip_adduction_l	hip_rotation_l	knee_angle_l	ankle_angle_l	subtalar_angle_l	mtp_angle_l	lumbar_extension	lumbar_bending	lumbar_rotation	neck_flex	neck_latbend	neck_rot	arm_flex_r	arm_add_r	arm_rot_r	elbow_flex_r	pro_sup_r	wrist_flex_r	wrist_dev_r	arm_flex_l	arm_add_l	arm_rot_l	elbow_flex_l	pro_sup_l	wrist_flex_l	wrist_dev_l
11.6497732	-37.08312381331925	13.84148864135928	-243.1351458479994	0.2341366603171506	0.04326292228651554	-1.326684523481465	-22.57117169827992	-1.591976316804377	-3.241458145969817	5.899560354604904	2.451982624139334	1.987972377786656	0	-24.74788768789517	-3.395140484746916	-11.58000132048591	9.793848132074926	-0.4439473045988533	4.250290820099795	0	-21.37711699760957	1.659277491615732	3.206407148933037	0	0	0	0.7869998845164529	-15.17647278545944	33.30256487492064	7.126590279029422	24.89681568632129	0	0.02273315053593124	5.877367641829134	-13.23009046441193	43.88572538637174	6.944411893640621	33.49125275520402	0	0.02273315053593124
11.8026946	2.713671732500071	-23.91511746770033	-230.5276524582337	0.2341366603171506	0.04326292228651554	-1.326684523481465	-22.57117169827992	-1.591976316804377	-3.241458145969817	5.899560354604904	2.451982624139334	1.987972377786656	0	-24.74788768789517	-3.395140484746916	-11.58000132048591	9.793848132074926	-0.4439473045988533	4.250290820099795	0	-21.37711699760957	1.659277491615732	3.206407148933037	0	0	0	0.7847491428250545	-15.17648262059798	33.30547642342655	7.089285905952906	24.88940118255723	0	0.01936506714719367	5.875318391821789	-13.22999179691863	43.89005845152309	6.906177240166766	33.48759625722152	0	0.01936506714719367
11.9756362	56.59619121821527	-55.63503298583026	-197.8709693074056	0.2341366603171506	0.04326292228651554	-1.326684523481465	-22.57117169827992	-1.591976316804377	-3.241458145969817	5.899560354604904	2.451982624139334	1.987972377786656	0	-24.74788768789517	-3.395140484746916	-11.58000132048591	9.793848132074926	-0.4439473045988533	4.250290820099795	0	-21.37711699760957	1.659277491615732	3.206407148933037	0	0	0	0.7875241227477376	-15.17647042087931	33.30183343488562	7.141794480370004	24.8989952654445	0	0.02378288317274647	5.87784306309708	-13.23011418709627	43.8846142454871	6.96016105151666	33.49228802825787	0	0.02378288317274647
12.1504631	-32.04119444971819	-70.10666303923919	62.05952530483344	0.2341366603171506	0.04326292228651554	-1.326684523481465	-22.57117169827992	-1.591976316804377	-3.241458145969817	5.899560354604904	2.451982624139334	1.987972377786656	0	-24.74788768789517	-3.395140484746916	-11.58000132048591	9.793848132074926	-0.4439473045988533	4.250290820099795	0	-21.37711699760957	1.659277491615732	3.206407148933037	0	0	0	0.7948876930614787	-15.17643811738931	33.2922150020912	7.275563818531335	24.92407761278143	0	0.03529184388499809	5.884544277834046	-13.23043826178052	43.87025921677907	7.097547519977228	33.50458359464523	0	0.03529184388499809
12.3253519	-47.24624007549397	-19.42090881544725	43.03411805780633	0.2341366603171506	0.04326292228651554	-1.326684523481465	-22.57117169827992	-1.591976316804377	-3.241458145969817	5.899560354604904	2.451982624139334	1.987972377786656	0	-24.74788768789517	-3.395140484746916	-11.58000132048591	9.793848132074926	-0.4439473045988533	4.250290820099795	0	-21.37711699760957	1.659277491615732	3.206407148933037	0	0	0	0.7870964689671791	-15.17647234677296	33.30242814736656	7.129827878707336	24.89722738689117	0	0.02293083207303268	5.877455124257918	-13.23009486557739	43.88551705586672	6.947786877973908	33.49144750107163	0	0.02293083207303268
12.5002558	-41.8182117430936	7.43954157737275	50.96311016746805	0.2341366603171506	0.04326292228651554	-1.326684523481465	-22.57117169827992	-1.591976316804377	-3.241458145969817	5.899560354604904	2.451982624139334	1.987972377786656	0	-24.74788768789517	-3.395140484746916	-11.58000132048591	9.793848132074926	-0.4439473045988533	4.250290820099795	0	-21.37711699760957	1.659277491615732	3.206407148933037	0	0	0	0.7844827341201481	-15.17648380255111	33.30583399517024	7.083088089021802	24.88841268115673	0	0.01890166351040494	5.875076294462424	-13.22997993918229	43.8905961685759	6.899770719707043	33.48711879408674	0	0.01890166351040494
